<svg width="1000" height="123" viewBox="0 0 1000 123" fill="none" xmlns="http://www.w3.org/2000/svg">
<g clip-path="url(#clip0)">
<path d="M37.2212 0.0147498H0L34.6123 81.4144L53.2229 38.8013L37.2212 0.0147498ZM104.011 0.0147498L70.2681 79.3273L52.0053 121.766H85.9219L138.101 0.0147498H104.011Z" fill="#6C6CFF"/>
<path d="M213.178 0H179.263L125.522 121.781H160.654L170.22 98.121L180.307 72.7209L195.96 33.7508L211.613 72.7209L221.7 98.121L231.265 121.781H267.093L213.178 0Z" fill="#6C6CFF"/>
<path d="M277.015 0.0147498V121.766H369.546V94.4592H311.453V0.0147498H277.015Z" fill="#6C6CFF"/>
<path d="M498.842 0.0147498H464.404V45.7586H417.442V0.0147498H383.004V121.766H417.442V74.2833H464.404V121.766H498.842V0.0147498Z" fill="#6C6CFF"/>
<path d="M596.181 0.0147498H562.265L508.52 121.766H543.654L553.22 98.1118L563.308 72.7179L578.962 33.7574L594.616 72.7179L604.704 98.1118L614.27 121.766H650.1L596.181 0.0147498Z" fill="#6C6CFF"/>
<path d="M659.867 0.0147498V121.766H752.398V94.4592H694.305V0.0147498H659.867Z" fill="#6C6CFF"/>
<path d="M765.856 0.0147498V121.766H858.387V94.4592H800.294V0.0147498H765.856Z" fill="#6C6CFF"/>
<path d="M946.081 0.0147498H912.165L858.42 121.766H893.554L903.12 98.1118L913.208 72.7179L928.862 33.7574L944.516 72.7179L954.604 98.1118L964.17 121.766H1000L946.081 0.0147498Z" fill="#6C6CFF"/>
<path d="M37.2212 0.0147498H0L34.6123 81.4144L53.2229 38.8013L37.2212 0.0147498ZM104.011 0.0147498L70.2681 79.3273L52.0053 121.766H85.9219L138.101 0.0147498H104.011Z" stroke="#6C6CFF"/>
<path d="M213.178 0H179.263L125.522 121.781H160.654L170.22 98.121L180.307 72.7209L195.96 33.7508L211.613 72.7209L221.7 98.121L231.265 121.781H267.093L213.178 0Z" stroke="#6C6CFF"/>
<path d="M277.015 0.0147498V121.766H369.546V94.4592H311.453V0.0147498H277.015Z" stroke="#6C6CFF"/>
<path d="M498.842 0.0147498H464.404V45.7586H417.442V0.0147498H383.004V121.766H417.442V74.2833H464.404V121.766H498.842V0.0147498Z" stroke="#6C6CFF"/>
<path d="M596.181 0.0147498H562.265L508.52 121.766H543.654L553.22 98.1118L563.308 72.7179L578.962 33.7574L594.616 72.7179L604.704 98.1118L614.27 121.766H650.1L596.181 0.0147498Z" stroke="#6C6CFF"/>
<path d="M659.867 0.0147498V121.766H752.398V94.4592H694.305V0.0147498H659.867Z" stroke="#6C6CFF"/>
<path d="M765.856 0.0147498V121.766H858.387V94.4592H800.294V0.0147498H765.856Z" stroke="#6C6CFF"/>
<path d="M946.081 0.0147498H912.165L858.42 121.766H893.554L903.12 98.1118L913.208 72.7179L928.862 33.7574L944.516 72.7179L954.604 98.1118L964.17 121.766H1000L946.081 0.0147498Z" stroke="#6C6CFF"/>
</g>
<defs>
<clipPath id="clip0">
<rect width="999.375" height="123" fill="white"/>
</clipPath>
</defs>
</svg>
